<svg width="28" height="31" viewBox="0 0 28 31" fill="none" xmlns="http://www.w3.org/2000/svg">
<path d="M5.33333 1L1 6.77778V27C1 27.7662 1.30436 28.501 1.84614 29.0428C2.38791 29.5845 3.12271 29.8889 3.88889 29.8889H24.1111C24.8773 29.8889 25.6121 29.5845 26.1539 29.0428C26.6956 28.501 27 27.7662 27 27V6.77778L22.6667 1H5.33333Z" stroke="#166534" stroke-width="2" stroke-linecap="round" stroke-linejoin="round"/>
<path d="M19.7776 12.5555C19.7776 14.0878 19.1689 15.5574 18.0853 16.641C17.0018 17.7245 15.5322 18.3332 13.9998 18.3332C12.4675 18.3332 10.9979 17.7245 9.91432 16.641C8.83077 15.5574 8.22205 14.0878 8.22205 12.5555" stroke="#166534" stroke-width="2" stroke-linecap="round" stroke-linejoin="round"/>
<path d="M1 6.77789H27" stroke="#166534" stroke-width="2" stroke-linecap="round" stroke-linejoin="round"/>
</svg>

