<svg width="60" height="60" viewBox="0 0 60 60" fill="none" xmlns="http://www.w3.org/2000/svg">
<path d="M50.8333 5H9.16667C8.0616 5 7.00179 5.43899 6.22039 6.22039C5.43899 7.00179 5 8.0616 5 9.16667V34.1667C5 35.2717 5.43899 36.3315 6.22039 37.1129C7.00179 37.8943 8.0616 38.3333 9.16667 38.3333H17.5V52.5C17.502 53.1624 17.766 53.7972 18.2344 54.2656C18.7028 54.734 19.3376 54.998 20 55H40C40.6624 54.998 41.2972 54.734 41.7656 54.2656C42.234 53.7972 42.498 53.1624 42.5 52.5V38.3333H50.8333C51.9384 38.3333 52.9982 37.8943 53.7796 37.1129C54.561 36.3315 55 35.2717 55 34.1667V9.16667C55 8.0616 54.561 7.00179 53.7796 6.22039C52.9982 5.43899 51.9384 5 50.8333 5ZM40.8333 52.5C40.8333 52.721 40.7455 52.933 40.5893 53.0893C40.433 53.2455 40.221 53.3333 40 53.3333H20C19.779 53.3333 19.567 53.2455 19.4107 53.0893C19.2545 52.933 19.1667 52.721 19.1667 52.5V37.5C19.1667 37.279 19.2545 37.067 19.4107 36.9107C19.567 36.7545 19.779 36.6667 20 36.6667H40C40.221 36.6667 40.433 36.7545 40.5893 36.9107C40.7455 37.067 40.8333 37.279 40.8333 37.5V52.5ZM30 25C31.9882 25.0031 33.894 25.7943 35.2999 27.2001C36.7057 28.606 37.4969 30.5118 37.5 32.5V35H35.8333V32.5C35.8333 30.9529 35.2188 29.4692 34.1248 28.3752C33.0308 27.2812 31.5471 26.6667 30 26.6667C28.4529 26.6667 26.9692 27.2812 25.8752 28.3752C24.7812 29.4692 24.1667 30.9529 24.1667 32.5V35H22.5V32.5C22.5031 30.5118 23.2943 28.606 24.7001 27.2001C26.106 25.7943 28.0118 25.0031 30 25ZM23.3333 25V23.3333H26.6667V23.9667C25.99 24.2359 25.3468 24.5827 24.75 25H23.3333ZM33.3333 23.9667V23.3333H36.6667V25H35.25C34.6532 24.5827 34.01 24.2359 33.3333 23.9667ZM34.1667 32.5V35H25.8333V32.5C25.8333 31.3949 26.2723 30.3351 27.0537 29.5537C27.8351 28.7723 28.8949 28.3333 30 28.3333C31.1051 28.3333 32.1649 28.7723 32.9463 29.5537C33.7277 30.3351 34.1667 31.3949 34.1667 32.5ZM53.3333 34.1667C53.3314 34.8291 53.0673 35.4638 52.5989 35.9322C52.1305 36.4007 51.4958 36.6647 50.8333 36.6667H42.35C42.177 36.181 41.8586 35.7605 41.4381 35.4623C41.0177 35.1641 40.5155 35.0027 40 35H39.1667V32.5C39.1684 30.3702 38.4255 28.3067 37.0667 26.6667H37.5C37.721 26.6667 37.933 26.5789 38.0893 26.4226C38.2455 26.2663 38.3333 26.0543 38.3333 25.8333V22.5C38.3333 22.279 38.2455 22.067 38.0893 21.9107C37.933 21.7545 37.721 21.6667 37.5 21.6667H32.5C32.279 21.6667 32.067 21.7545 31.9107 21.9107C31.7545 22.067 31.6667 22.279 31.6667 22.5V23.4917C30.5656 23.2806 29.4344 23.2806 28.3333 23.4917V22.5C28.3333 22.279 28.2455 22.067 28.0893 21.9107C27.933 21.7545 27.721 21.6667 27.5 21.6667H22.5C22.279 21.6667 22.067 21.7545 21.9107 21.9107C21.7545 22.067 21.6667 22.279 21.6667 22.5V25.8333C21.6667 26.0543 21.7545 26.2663 21.9107 26.4226C22.067 26.5789 22.279 26.6667 22.5 26.6667H22.9333C21.5745 28.3067 20.8316 30.3702 20.8333 32.5V35H20C19.4845 35.0027 18.9823 35.1641 18.5619 35.4623C18.1414 35.7605 17.823 36.181 17.65 36.6667H9.16667C8.50423 36.6647 7.8695 36.4007 7.40109 35.9322C6.93267 35.4638 6.66865 34.8291 6.66667 34.1667V9.16667C6.66865 8.50423 6.93267 7.8695 7.40109 7.40109C7.8695 6.93267 8.50423 6.66865 9.16667 6.66667H50.8333C51.4958 6.66865 52.1305 6.93267 52.5989 7.40109C53.0673 7.8695 53.3314 8.50423 53.3333 9.16667V34.1667Z" fill="#166534"/>
<path d="M17.5 21.6667H12.5C12.279 21.6667 12.067 21.7545 11.9107 21.9107C11.7545 22.067 11.6667 22.279 11.6667 22.5V25.8333C11.6667 26.0543 11.7545 26.2663 11.9107 26.4226C12.067 26.5789 12.279 26.6667 12.5 26.6667H17.5C17.721 26.6667 17.933 26.5789 18.0892 26.4226C18.2455 26.2663 18.3333 26.0543 18.3333 25.8333V22.5C18.3333 22.279 18.2455 22.067 18.0892 21.9107C17.933 21.7545 17.721 21.6667 17.5 21.6667ZM16.6667 25H13.3333V23.3333H16.6667V25Z" fill="#166534"/>
<path d="M47.5 21.6667H42.5C42.279 21.6667 42.067 21.7545 41.9107 21.9107C41.7545 22.067 41.6667 22.279 41.6667 22.5V25.8333C41.6667 26.0543 41.7545 26.2663 41.9107 26.4226C42.067 26.5789 42.279 26.6667 42.5 26.6667H47.5C47.721 26.6667 47.933 26.5789 48.0892 26.4226C48.2455 26.2663 48.3333 26.0543 48.3333 25.8333V22.5C48.3333 22.279 48.2455 22.067 48.0892 21.9107C47.933 21.7545 47.721 21.6667 47.5 21.6667ZM46.6667 25H43.3333V23.3333H46.6667V25Z" fill="#166534"/>
<path d="M20.8333 10H14.1667C13.5036 10 12.8677 10.2634 12.3989 10.7322C11.93 11.2011 11.6667 11.837 11.6667 12.5V15.8333C11.6667 16.4964 11.93 17.1323 12.3989 17.6011C12.8677 18.0699 13.5036 18.3333 14.1667 18.3333H20.8333C21.4964 18.3333 22.1322 18.0699 22.6011 17.6011C23.0699 17.1323 23.3333 16.4964 23.3333 15.8333V12.5C23.3333 11.837 23.0699 11.2011 22.6011 10.7322C22.1322 10.2634 21.4964 10 20.8333 10ZM21.6667 12.5V13.3333H20.0083V11.6667H20.8333C21.0543 11.6667 21.2663 11.7545 21.4226 11.9107C21.5789 12.067 21.6667 12.279 21.6667 12.5ZM16.6667 11.6667H18.3417V16.6667H16.6708L16.6667 11.6667ZM14.1667 11.6667H15.0042V13.3333H13.3333V12.5C13.3333 12.279 13.4211 12.067 13.5774 11.9107C13.7337 11.7545 13.9456 11.6667 14.1667 11.6667ZM13.3333 15.8333V15H15.0042V16.6667H14.1667C13.9456 16.6667 13.7337 16.5789 13.5774 16.4226C13.4211 16.2663 13.3333 16.0543 13.3333 15.8333ZM20.8333 16.6667H20.0083V15H21.6667V15.8333C21.6667 16.0543 21.5789 16.2663 21.4226 16.4226C21.2663 16.5789 21.0543 16.6667 20.8333 16.6667Z" fill="#166534"/>
<path d="M30 40C29.1897 39.999 28.407 40.2937 27.7986 40.8289C27.1902 41.3641 26.7981 42.1029 26.6958 42.9067C26.5935 43.7105 26.7881 44.524 27.243 45.1945C27.698 45.865 28.382 46.3464 29.1667 46.5483V49.1667C29.1667 49.3877 29.2545 49.5996 29.4107 49.7559C29.567 49.9122 29.779 50 30 50C30.221 50 30.433 49.9122 30.5893 49.7559C30.7455 49.5996 30.8333 49.3877 30.8333 49.1667V46.5483C31.618 46.3464 32.302 45.865 32.757 45.1945C33.2119 44.524 33.4065 43.7105 33.3042 42.9067C33.2019 42.1029 32.8098 41.3641 32.2014 40.8289C31.593 40.2937 30.8103 39.999 30 40ZM30 45C29.6704 45 29.3481 44.9023 29.0741 44.7191C28.8 44.536 28.5864 44.2757 28.4602 43.9711C28.3341 43.6666 28.3011 43.3315 28.3654 43.0082C28.4297 42.6849 28.5884 42.3879 28.8215 42.1548C29.0546 41.9217 29.3516 41.763 29.6749 41.6987C29.9982 41.6344 30.3333 41.6674 30.6378 41.7935C30.9424 41.9197 31.2027 42.1333 31.3858 42.4074C31.5689 42.6815 31.6667 43.0037 31.6667 43.3333C31.6667 43.7754 31.4911 44.1993 31.1785 44.5118C30.866 44.8244 30.442 45 30 45Z" fill="#166534"/>
</svg>

