<svg width="60" height="60" viewBox="0 0 60 60" fill="none" xmlns="http://www.w3.org/2000/svg">
<g clip-path="url(#clip0_14_179)">
<path d="M13.7078 11.0707C14.1932 11.0707 14.5867 10.6771 14.5867 10.1918C14.5867 9.70636 14.1932 9.31285 13.7078 9.31285C13.2224 9.31285 12.8289 9.70636 12.8289 10.1918C12.8289 10.6771 13.2223 11.0707 13.7078 11.0707ZM6.67652 11.0707C7.16191 11.0707 7.55543 10.6771 7.55543 10.1918C7.55543 9.70636 7.16191 9.31285 6.67652 9.31285C6.19113 9.31285 5.79762 9.70636 5.79762 10.1918C5.79762 10.6771 6.19102 11.0707 6.67652 11.0707ZM10.1921 11.0707C10.6775 11.0707 11.0711 10.6771 11.0711 10.1918C11.0711 9.70636 10.6775 9.31285 10.1921 9.31285C9.70676 9.31285 9.31324 9.70636 9.31324 10.1918C9.31324 10.6771 9.70664 11.0707 10.1921 11.0707ZM9.99938 20.3816C10.0048 20.3817 10.0102 20.3817 10.0155 20.3817L17.9619 20.3837H17.9624C18.5114 20.3837 18.9775 20.028 19.1224 19.4986C19.2675 18.9689 19.0473 18.4252 18.5748 18.1457L17.3663 17.4307C19.3088 15.5054 20.4013 12.8785 20.3839 10.1262C20.3491 4.62218 15.8442 0.0801102 10.3418 0.000891414C4.64004 -0.0810227 0 4.53113 0 10.192C0 15.6205 4.47281 20.264 9.99938 20.3816ZM4.27148 4.18495C5.89219 2.58745 8.03438 1.72671 10.3166 1.75847C14.8697 1.82398 18.5973 5.58265 18.6261 10.1373C18.6417 12.5946 17.588 14.9314 15.735 16.5484C15.4252 16.8186 15.2629 17.2242 15.3004 17.6333C15.3379 18.0421 15.5714 18.411 15.9247 18.62L15.9335 18.6252L10.0242 18.6237C5.45602 18.5361 1.75781 14.7727 1.75781 10.192C1.75781 7.91609 2.65055 5.78281 4.27148 4.18495ZM59.1211 58.242H58.2422V45.1534C58.2422 41.7242 56.2159 38.6103 53.0701 37.2159L48.4382 35.2306C49.5653 34.875 50.5835 34.2407 51.412 33.361C52.6621 32.0339 53.3789 30.233 53.3789 28.4203C53.3789 26.7546 52.797 25.1824 51.6957 23.8733C50.3183 22.2377 49.5598 20.159 49.5598 18.0199V13.8082C49.5598 10.1193 48.1232 6.65199 45.5148 4.04492C42.9064 1.43632 39.4388 -0.000163274 35.7504 -0.000163274C28.1365 -0.000163274 21.9422 6.19413 21.9422 13.808V17.8827C21.9427 20.0961 21.0728 22.2089 19.6593 23.9119C17.8802 26.0553 17.5106 28.9532 18.6948 31.4748C19.5737 33.3465 21.159 34.6912 23.0569 35.2604L18.4573 37.2605C15.2303 38.6185 13.145 41.7581 13.145 45.2589V55.6054C13.145 56.0908 13.5384 56.4843 14.0239 56.4843C14.5095 56.4843 14.9029 56.0908 14.9029 55.6054V45.2589C14.9029 42.4673 16.5656 39.9636 19.1487 38.8767L24.9141 36.3696V41.66H22.2653C21.5188 41.66 20.8043 41.9783 20.305 42.5333C19.8057 43.0883 19.5646 43.8323 19.6433 44.5746L21.0921 58.242H0.878906C0.393398 58.242 0 58.6355 0 59.1209C0 59.6063 0.393398 59.9998 0.878906 59.9998H59.1211C59.6066 59.9998 60 59.6063 60 59.1209C60 58.6355 59.6066 58.242 59.1211 58.242ZM50.3509 25.0051C51.1819 25.993 51.6211 27.1739 51.6211 28.4202C51.6211 29.7897 51.0785 31.1512 50.1325 32.1557C49.1307 33.2192 47.7546 33.8049 46.2575 33.8049H45.1121L43.6076 33.16C42.2933 32.5964 41.3943 31.388 41.2105 29.9971C43.9223 28.537 45.77 25.6713 45.77 22.3815V15.7741C46.0273 15.7916 46.2843 15.801 46.5405 15.801C46.9632 15.801 47.3843 15.777 47.8021 15.7297V18.0198C47.802 20.5726 48.7073 23.0534 50.3509 25.0051ZM35.964 38.8802C32.8198 38.9359 29.6992 38.5374 26.6719 37.6978V35.6052L26.9261 35.4946C26.928 35.4938 26.93 35.4929 26.9321 35.4921L28.5001 34.8103C30.2455 34.0515 31.4789 32.4973 31.8529 30.6812C32.6182 30.9037 33.426 31.0253 34.2622 31.0253H37.1262C37.9656 31.0253 38.7764 30.9028 39.5443 30.6786C39.9306 32.4864 41.1687 34.0266 42.9149 34.7757L44.5883 35.4929C44.5894 35.4934 44.5904 35.4938 44.5915 35.4942L44.7155 35.5473V37.525C41.871 38.3725 38.9303 38.8284 35.964 38.8802ZM44.7152 39.355V41.6601H26.6719V39.5179C29.5212 40.265 32.4466 40.643 35.3919 40.643C35.5928 40.643 35.7938 40.6413 35.9947 40.6378C38.9467 40.5862 41.8745 40.1548 44.7152 39.355ZM47.802 13.9573C45.381 14.2844 42.652 13.6359 40.7719 12.1791C40.3883 11.8819 39.8363 11.9518 39.5388 12.3356C39.2415 12.7193 39.3116 13.2713 39.6953 13.5686C40.9245 14.5209 42.407 15.1917 44.0122 15.5299V20.3148C43.5899 21.2773 43.1197 22.0778 42.0598 22.9523C41.6135 23.3205 41.1251 23.6262 40.602 23.8688C40.1748 23.0353 39.3073 22.4632 38.3081 22.4632H36.2484C34.8278 22.4632 33.6721 23.619 33.6721 25.0395C33.6721 26.4601 34.8278 27.6159 36.2484 27.6159H38.3081C39.5037 27.6159 40.5115 26.7972 40.8008 25.6912C41.9766 25.2432 43.8936 23.645 43.8941 23.6444C43.2989 26.8398 40.4916 29.2671 37.1263 29.2671H34.2621C30.4652 29.2671 27.3762 26.1781 27.3762 22.3811V15.5873C30.3613 15.1194 33.1814 14.1092 35.7677 12.5794C39.7057 10.2501 42.2317 7.20628 43.7561 4.80148C46.3643 7.12449 47.848 10.4548 47.802 13.9573ZM39.1264 25.042C39.1252 25.4923 38.7586 25.8583 38.308 25.8583H36.2483C35.7969 25.8583 35.4298 25.491 35.4298 25.0398C35.4298 24.5885 35.797 24.2212 36.2483 24.2212H38.308C38.7585 24.2212 39.1249 24.5869 39.1264 25.0371V25.042ZM23.7 13.808C23.7 7.16339 29.1057 1.75765 35.7504 1.75765C38.1334 1.75765 40.4106 2.44554 42.3565 3.72617C40.9536 5.97488 38.5924 8.8666 34.8728 11.0669C32.321 12.5763 29.522 13.5399 26.5532 13.9311H26.4983C26.498 13.9311 26.4976 13.9311 26.4971 13.9311C26.4967 13.9311 26.4964 13.9311 26.496 13.9311H23.6999V13.808H23.7ZM20.2857 30.7276C19.3945 28.8294 19.6727 26.6479 21.0108 25.0359C22.6897 23.0131 23.7019 20.5137 23.7 17.8827V15.6889H25.6184V22.3815C25.6184 25.6732 27.4684 28.5403 30.1827 29.9996C30.0129 31.401 29.1165 32.6253 27.7991 33.1981L26.4036 33.8049H25.1297C23.0332 33.8049 21.1772 32.6258 20.2857 30.7276ZM50.8819 44.3894L49.4134 58.242H22.8598L21.3913 44.3894C21.3647 44.1383 21.443 43.8966 21.6118 43.709C21.7807 43.5213 22.0129 43.4179 22.2653 43.4179H50.0079C50.2603 43.4179 50.4925 43.5213 50.6613 43.709C50.8302 43.8966 50.9085 44.1383 50.8819 44.3894ZM56.4844 58.242H51.1811L52.6298 44.5748C52.7086 43.8324 52.4673 43.0884 51.9682 42.5334C51.4689 41.9784 50.7545 41.6601 50.0079 41.6601H46.473V36.3008L52.3677 38.8272C54.8685 39.9358 56.4844 42.4189 56.4844 45.1534V58.242ZM36.1365 47.4901C34.2949 47.4901 32.7967 48.9883 32.7967 50.8299C32.7967 52.6715 34.2949 54.1698 36.1365 54.1698C37.9781 54.1698 39.4764 52.6715 39.4764 50.8299C39.4764 48.9883 37.9781 47.4901 36.1365 47.4901ZM36.1365 52.4119C35.2642 52.4119 34.5545 51.7023 34.5545 50.8299C34.5545 49.9576 35.2642 49.2479 36.1365 49.2479C37.0089 49.2479 37.7186 49.9576 37.7186 50.8299C37.7186 51.7023 37.009 52.4119 36.1365 52.4119Z" fill="#166534"/>
</g>
<defs>
<clipPath id="clip0_14_179">
<rect width="60" height="60" fill="white"/>
</clipPath>
</defs>
</svg>

