<svg width="40" height="40" viewBox="0 0 40 40" fill="none" xmlns="http://www.w3.org/2000/svg">
<path d="M17.1279 2.75V2.75098C17.4041 2.74788 17.6703 2.85442 17.8672 3.04883C18.0649 3.24378 18.1768 3.50963 18.1768 3.78711C18.1768 4.06494 18.0648 4.33048 17.8672 4.52539C17.6702 4.71992 17.4039 4.82603 17.1279 4.82324V4.82422H7.89062C7.23382 4.82422 6.82424 5.26921 6.82422 5.73047V34.8936C6.82422 35.3581 7.23769 35.8125 7.89062 35.8125H17.1279C17.4039 35.8094 17.6704 35.9162 17.8672 36.1104C18.065 36.3053 18.1768 36.5721 18.1768 36.8496C18.1767 37.0926 18.0912 37.3265 17.9375 37.5117L17.8672 37.5879C17.6703 37.7823 17.4039 37.8885 17.1279 37.8857L7.89062 37.8867C6.2141 37.8867 4.75 36.5807 4.75 34.8936V5.73047C4.75003 4.04192 6.21566 2.75 7.89062 2.75H17.1279ZM26.916 12.3818C27.232 12.3467 27.5463 12.459 27.7695 12.6855L34.8545 19.5732L34.8564 19.5742C35.0534 19.7688 35.164 20.0349 35.1641 20.3115C35.1641 20.5885 35.0535 20.8551 34.8564 21.0498L34.8545 21.0508L27.7695 27.9395L27.7686 27.9385C27.5747 28.1351 27.311 28.2469 27.0352 28.248C26.7915 28.249 26.5562 28.1645 26.3701 28.0107L26.2939 27.9404C26.0984 27.7425 25.9898 27.474 25.9941 27.1953C25.9982 26.9164 26.1147 26.651 26.3164 26.459L31.5674 21.3555H14.2871V21.3545C14.0504 21.363 13.8186 21.2916 13.6299 21.1514L13.5508 21.0859C13.3476 20.9008 13.2258 20.6422 13.2129 20.3672C13.2 20.092 13.297 19.8227 13.4824 19.6191L13.5547 19.5469C13.7319 19.3874 13.9596 19.2927 14.2002 19.2812H31.5684L26.3145 14.1631V14.1621C26.024 13.8839 25.9195 13.4632 26.0479 13.082C26.1766 12.7 26.5151 12.4265 26.916 12.3818Z" fill="#166534" stroke="#166534" stroke-width="0.5"/>
</svg>

