<svg width="60" height="60" viewBox="0 0 60 60" fill="none" xmlns="http://www.w3.org/2000/svg">
<g clip-path="url(#clip0_14_170)">
<path d="M38.1919 19.5051L35.3986 14.9829C38.8164 8.87779 38.1299 3.78633 35.8776 1.40379C34.5399 -0.0114889 32.7358 -0.388951 31.1696 0.419059C29.1325 1.46988 28.0421 4.55321 27.8357 9.84552C27.8036 10.6695 27.7967 11.4772 27.8052 12.237L18.1137 14.4505C17.8372 14.5137 17.6081 14.7064 17.4986 14.968L6.9784 40.0984C6.79102 40.546 7.00207 41.0609 7.44973 41.2484C7.56059 41.2948 7.67555 41.3168 7.78875 41.3168C8.13246 41.3168 8.45883 41.1139 8.59981 40.777L18.9456 16.0635L27.8543 14.0287C27.901 15.1102 27.9686 15.9871 28.0154 16.5158C27.6498 16.8065 27.3606 17.185 27.1754 17.6275C26.8853 18.3203 26.8824 19.0844 27.167 19.7791C27.4517 20.4736 27.99 21.016 28.6829 21.306C29.0365 21.454 29.4033 21.5241 29.7646 21.524C30.8643 21.524 31.9108 20.8746 32.3614 19.7984C32.6511 19.1063 32.654 18.3425 32.3695 17.6476C32.0848 16.9525 31.5466 16.4099 30.8539 16.12C30.4919 15.9685 30.1104 15.8962 29.7295 15.9015C29.6853 15.332 29.6338 14.5455 29.5993 13.6301L32.139 13.05L33.6228 15.4523C33.6236 15.4537 33.6244 15.4549 33.6252 15.4562L36.6967 20.4287C36.9517 20.8416 37.4931 20.9697 37.9064 20.7146C38.3191 20.4596 38.4471 19.918 38.1919 19.5051ZM29.7687 17.6594C29.9064 17.6594 30.0442 17.6868 30.175 17.7416C30.4343 17.8503 30.6359 18.0535 30.7425 18.314C30.8492 18.5744 30.8481 18.8605 30.7397 19.1196C30.5153 19.6553 29.8972 19.9084 29.3616 19.6845C29.1019 19.5759 28.9001 19.3727 28.7936 19.1125C28.687 18.8523 28.6881 18.566 28.7969 18.3064C28.9054 18.0471 29.1085 17.8456 29.3689 17.7388C29.498 17.6859 29.6334 17.6594 29.7687 17.6594ZM33.3039 11.5915C33.1062 11.2716 32.7269 11.1128 32.3604 11.1966L29.5606 11.8361C29.5579 11.2094 29.5668 10.556 29.5928 9.8958C29.7664 5.49516 30.6126 2.6843 31.9755 1.98129C32.8424 1.53398 33.7993 1.76379 34.6005 2.61129C35.5106 3.57399 36.0276 5.16786 36.0189 6.98438C36.0099 8.91107 35.4276 11.0547 34.3285 13.2501L33.3039 11.5915Z" fill="#166534"/>
<path d="M27.2452 32.3285C27.0558 31.8665 26.698 31.5059 26.2375 31.3133L25.5643 31.0314L26.0913 29.7724C26.2787 29.3246 26.0676 28.8097 25.6199 28.6223C25.1724 28.435 24.6574 28.6458 24.4699 29.0936L23.9398 30.3598C23.3008 30.1344 22.6111 30.1478 21.9792 30.4068C21.297 30.6864 20.7646 31.2149 20.48 31.8949C20.1952 32.5749 20.1924 33.3251 20.472 34.0072C20.7516 34.6893 21.28 35.2218 21.9601 35.5064L23.2842 36.0607C23.5311 36.164 23.723 36.3574 23.8245 36.6051C23.926 36.8527 23.9249 37.1252 23.8217 37.372C23.6083 37.8819 23.0201 38.1228 22.5104 37.9094L21.8485 37.6324C21.8484 37.6324 21.8484 37.6323 21.8484 37.6323C21.8483 37.6323 21.8481 37.6322 21.8481 37.6322L20.3643 37.0111C20.3361 36.9992 20.3159 36.9789 20.3044 36.9507C20.2929 36.9225 20.2929 36.8939 20.3047 36.8656C20.4922 36.4178 20.2811 35.9029 19.8334 35.7155C19.386 35.5279 18.8708 35.739 18.6834 36.1868C18.4906 36.6473 18.4886 37.1552 18.678 37.6171C18.8674 38.0791 19.2251 38.4397 19.6857 38.6325L20.3589 38.9143L19.8319 40.1732C19.6445 40.621 19.8556 41.1359 20.3033 41.3233C20.4141 41.3697 20.5291 41.3916 20.6423 41.3916C20.986 41.3916 21.3124 41.1888 21.4533 40.8519L21.9823 39.5882C22.2824 39.6939 22.5901 39.7448 22.8938 39.7448C23.9735 39.7448 25.001 39.1073 25.4433 38.0506C26.0306 36.6474 25.3667 35.0272 23.9629 34.4395L22.6387 33.8851C22.3919 33.7817 22.1999 33.5885 22.0985 33.3407C21.997 33.0931 21.998 32.8207 22.1014 32.5737C22.2047 32.3268 22.398 32.135 22.6457 32.0335C22.8933 31.9321 23.1658 31.9331 23.4127 32.0364L24.0747 32.3136H24.0748H24.0749L25.5589 32.9348C25.587 32.9466 25.6072 32.9669 25.6188 32.9951C25.6304 33.0234 25.6303 33.052 25.6185 33.0801C25.431 33.5279 25.6421 34.0428 26.0898 34.2302C26.5375 34.4177 27.0524 34.2068 27.2398 33.759C27.4327 33.2984 27.4346 32.7904 27.2452 32.3285Z" fill="#166534"/>
<path d="M40.1118 30.7107C39.5835 30.7107 39.0618 30.7395 38.5478 30.7944L41.0465 24.8264C41.1561 24.5648 41.1327 24.2664 40.9836 24.0251L39.9805 22.4009C39.7253 21.9879 39.1838 21.8599 38.7709 22.115C38.3579 22.3701 38.2298 22.9116 38.4849 23.3246L39.2506 24.5644L36.487 31.1652C35.1523 31.5063 33.8907 32.0316 32.7303 32.7118L35.1193 27.005C35.3067 26.5572 35.0957 26.0423 34.648 25.8549L21.2571 20.2488C21.0421 20.1586 20.8002 20.1578 20.5845 20.2462C20.3687 20.3345 20.1971 20.5051 20.1069 20.72L10.5822 43.4715C10.3947 43.9193 10.6057 44.4342 11.0534 44.6216L24.4442 50.2278C24.555 50.2743 24.6701 50.2963 24.7833 50.2963C25.127 50.2963 25.4533 50.0934 25.5944 49.7566L25.9206 48.9773C26.2607 50.3089 26.7841 51.5679 27.4615 52.7261L26.5048 55.0111L6.19969 46.5118L7.37192 43.712C7.55942 43.2642 7.34837 42.7493 6.90071 42.5619C6.45329 42.3743 5.93801 42.5855 5.75063 43.0331L4.23891 46.6437C4.14879 46.8587 4.14797 47.1007 4.23633 47.3163C4.32469 47.5321 4.4952 47.7039 4.71024 47.7939L26.6369 56.9719C26.7477 57.0183 26.8627 57.0402 26.9759 57.0402C27.3195 57.0402 27.646 56.8374 27.787 56.5006L28.6442 54.4529C31.3293 57.8305 35.4717 60 40.1117 60C48.1869 60 54.7564 53.4305 54.7564 45.3553C54.7564 37.2801 48.1869 30.7107 40.1118 30.7107ZM25.4671 45.3554C25.4671 45.4055 25.4685 45.455 25.469 45.505L24.3123 48.2669L12.5429 43.3396L21.3891 22.2094L33.1585 27.1367L29.9362 34.8341C27.1823 37.4984 25.4671 41.2302 25.4671 45.3554ZM40.1118 58.2424C33.1161 58.2424 27.4045 52.6392 27.229 45.6849C27.2291 45.6748 27.2289 45.6647 27.2287 45.6545C27.2265 45.5551 27.2249 45.4555 27.2249 45.3555C27.2249 38.2496 33.006 32.4686 40.1118 32.4686C47.2176 32.4686 52.9987 38.2496 52.9987 45.3555C52.9987 52.4613 47.2176 58.2424 40.1118 58.2424Z" fill="#166534"/>
<path d="M40.1118 35.0976C34.4556 35.0976 29.8539 39.6992 29.8539 45.3555C29.8539 51.0117 34.4555 55.6133 40.1118 55.6133C42.9535 55.6133 45.596 54.4779 47.5529 52.4162C47.8871 52.0642 47.8726 51.5079 47.5204 51.1736C47.1684 50.8395 46.6121 50.854 46.2779 51.2061C44.6562 52.9146 42.4666 53.8555 40.1118 53.8555C35.4249 53.8555 31.6117 50.0423 31.6117 45.3555C31.6117 40.6687 35.4249 36.8554 40.1118 36.8554C44.7987 36.8554 48.6118 40.6685 48.6118 45.3555C48.6118 46.6027 48.3481 47.8038 47.8282 48.9254C47.624 49.3658 47.8156 49.8883 48.2559 50.0925C48.6962 50.2965 49.2187 50.1049 49.423 49.6647C50.051 48.3097 50.3695 46.8598 50.3695 45.3556C50.3696 39.6992 45.7679 35.0976 40.1118 35.0976Z" fill="#166534"/>
<path d="M40.7731 44.6278H39.5615C39.1707 44.6278 38.8528 44.3099 38.8528 43.919C38.8528 43.5282 39.1706 43.2103 39.5614 43.2103H41.4828C41.5054 43.6756 41.8898 44.0458 42.3607 44.0458C42.8461 44.0458 43.2396 43.6523 43.2396 43.1669C43.2396 42.2216 42.4705 41.4525 41.525 41.4525H41.0461V40.4375C41.0461 39.9521 40.6525 39.5586 40.1672 39.5586C39.6818 39.5586 39.2882 39.9521 39.2882 40.4375V41.4684C38.0564 41.6048 37.0947 42.6513 37.0947 43.9189C37.0947 45.279 38.2012 46.3855 39.5613 46.3855H40.7729C41.1637 46.3855 41.4817 46.7034 41.4817 47.0942C41.4817 47.4851 41.1637 47.803 40.7729 47.803H38.8517C38.8291 47.3376 38.4447 46.9674 37.9739 46.9674C37.4885 46.9674 37.095 47.361 37.095 47.8463C37.095 48.7917 37.8641 49.5608 38.8094 49.5608H39.2884V50.5758C39.2884 51.0612 39.6819 51.4547 40.1673 51.4547C40.6527 51.4547 41.0462 51.0612 41.0462 50.5758V49.5449C42.2781 49.4085 43.2397 48.362 43.2397 47.0943C43.2397 45.7343 42.1332 44.6278 40.7731 44.6278Z" fill="#166534"/>
<path d="M49.3133 18.2337H45.9983C45.5129 18.2337 45.1194 18.6272 45.1194 19.1126C45.1194 19.598 45.5129 19.9915 45.9983 19.9915H49.3133C49.7987 19.9915 50.1922 19.598 50.1922 19.1126C50.1922 18.6272 49.7987 18.2337 49.3133 18.2337Z" fill="#166534"/>
<path d="M54.9504 24.7117H51.6353C51.1499 24.7117 50.7563 25.1052 50.7563 25.5906C50.7563 26.076 51.1499 26.4695 51.6353 26.4695H54.9504C55.4358 26.4695 55.8293 26.076 55.8293 25.5906C55.8293 25.1052 55.4358 24.7117 54.9504 24.7117Z" fill="#166534"/>
<path d="M14.707 12.6837H11.3921C10.9067 12.6837 10.5132 13.0772 10.5132 13.5626C10.5132 14.048 10.9066 14.4415 11.3921 14.4415H14.7071C15.1925 14.4415 15.586 14.048 15.586 13.5626C15.5859 13.0772 15.1923 12.6837 14.707 12.6837Z" fill="#166534"/>
<path d="M23.1661 3.9306H19.8511C19.3657 3.9306 18.9722 4.32412 18.9722 4.80951C18.9722 5.2949 19.3657 5.68842 19.8511 5.68842H23.1661C23.6515 5.68842 24.0451 5.2949 24.0451 4.80951C24.0451 4.32412 23.6515 3.9306 23.1661 3.9306Z" fill="#166534"/>
</g>
<defs>
<clipPath id="clip0_14_170">
<rect width="60" height="60" fill="white"/>
</clipPath>
</defs>
</svg>

