<svg width="32" height="33" viewBox="0 0 32 33" fill="none" xmlns="http://www.w3.org/2000/svg">
<path d="M4.535 26.2608C8.03236 24.2369 11.9826 23.1763 16 23.1825C20.1667 23.1825 24.0783 24.3002 27.465 26.2608M21 12.9444C21 14.3021 20.4732 15.6042 19.5355 16.5642C18.5979 17.5242 17.3261 18.0635 16 18.0635C14.6739 18.0635 13.4021 17.5242 12.4645 16.5642C11.5268 15.6042 11 14.3021 11 12.9444C11 11.5868 11.5268 10.2847 12.4645 9.32473C13.4021 8.36472 14.6739 7.8254 16 7.8254C17.3261 7.8254 18.5979 8.36472 19.5355 9.32473C20.4732 10.2847 21 11.5868 21 12.9444V12.9444ZM31 16.3571C31 18.3739 30.612 20.3709 29.8582 22.2341C29.1044 24.0973 27.9995 25.7902 26.6066 27.2163C25.2137 28.6423 23.5601 29.7735 21.7403 30.5453C19.9204 31.3171 17.9698 31.7143 16 31.7143C14.0302 31.7143 12.0796 31.3171 10.2597 30.5453C8.43986 29.7735 6.78628 28.6423 5.3934 27.2163C4.00052 25.7902 2.89563 24.0973 2.14181 22.2341C1.38799 20.3709 1 18.3739 1 16.3571C1 12.2842 2.58035 8.37803 5.3934 5.498C8.20644 2.61798 12.0218 1 16 1C19.9782 1 23.7936 2.61798 26.6066 5.498C29.4196 8.37803 31 12.2842 31 16.3571Z" stroke="#166534" stroke-width="2" stroke-linecap="round" stroke-linejoin="round"/>
</svg>

