<svg width="60" height="60" viewBox="0 0 60 60" fill="none" xmlns="http://www.w3.org/2000/svg">
<path d="M16.875 56.6728V57.1875C16.875 57.4361 16.9738 57.6746 17.1496 57.8504C17.3254 58.0262 17.5639 58.125 17.8125 58.125H21.5625C21.8111 58.125 22.0496 58.0262 22.2254 57.8504C22.4012 57.6746 22.5 57.4361 22.5 57.1875V56.0353C29.1394 53.1188 34.9397 48.4462 39.375 44.0906V57.1875C39.375 57.4361 39.4738 57.6746 39.6496 57.8504C39.8254 58.0262 40.0639 58.125 40.3125 58.125H44.0625C44.3111 58.125 44.5496 58.0262 44.7254 57.8504C44.9012 57.6746 45 57.4361 45 57.1875V53.265C55.1513 43.9584 57.9909 29.8434 58.1081 29.2406C58.1435 29.057 58.1232 28.8669 58.0497 28.6949C57.9763 28.5229 57.8531 28.3768 57.6959 28.2754C57.5387 28.174 57.3548 28.1219 57.1679 28.1258C56.9809 28.1298 56.7993 28.1896 56.6466 28.2975C51.5879 32.0187 47.5762 36.9834 45 42.7106V37.9903C47.0756 35.505 48.3234 33.72 48.5456 33.3966C48.6771 33.2331 48.7491 33.0298 48.75 32.82C48.7503 32.6685 48.7139 32.5193 48.6439 32.385C48.5739 32.2507 48.4724 32.1353 48.3481 32.0488C48.2238 31.9623 48.0804 31.9071 47.9301 31.8881C47.7799 31.8691 47.6273 31.8868 47.4853 31.9397C46.6409 32.2091 45.8125 32.5081 45 32.8369V28.5703C46.6429 27.9883 48.0655 26.9122 49.0725 25.4897C50.0796 24.0672 50.6219 22.3679 50.625 20.625V17.8125C50.625 13.7147 47.31 1.875 42.1875 1.875C37.065 1.875 33.75 13.7147 33.75 17.8125V20.625C33.7531 22.3679 34.2954 24.0672 35.3025 25.4897C36.3096 26.9122 37.7321 27.9883 39.375 28.5703V35.6447C32.9151 39.6483 27.2042 44.7496 22.5 50.7188V45.36C27.4988 43.4194 31.875 36.8381 31.875 31.875C31.875 28.6284 31.875 18.75 25.3125 18.75C24.3933 18.7364 23.481 18.9102 22.6313 19.2609C20.5153 17.1225 18.1688 17.3859 16.0884 20.0184C15.7042 19.6199 15.244 19.3023 14.735 19.0845C14.2261 18.8666 13.6786 18.7529 13.125 18.75C9.26063 18.75 6.56251 23.7619 6.56251 30.9375C6.56251 36.7294 12.8091 42.9375 16.875 45.0797V50.3297C13.1448 45.5553 8.51943 41.5541 3.25782 38.55C3.09137 38.4603 2.9017 38.4231 2.7137 38.4432C2.5257 38.4632 2.34817 38.5397 2.2044 38.6625C2.06063 38.7853 1.95734 38.9486 1.9081 39.1312C1.85885 39.3137 1.86594 39.5069 1.92845 39.6853C5.03907 48.5484 13.0941 54.3506 16.875 56.6728ZM20.625 56.25H18.75V45.8438C18.8541 45.8653 19.5169 45.9375 19.6875 45.9375C20.0014 45.9329 20.3146 45.9072 20.625 45.8606V56.25ZM43.125 56.25H41.25V42.1875C41.9147 41.4909 42.5419 40.8112 43.125 40.1587V56.25ZM55.6059 31.4813C54.3881 35.6925 51.3075 44.1834 45 50.6503V47.625C46.7231 42.7912 49.9144 36.3497 55.6059 31.4813ZM48.75 17.8125V20.625C48.7482 22.1866 48.1896 23.6963 47.1746 24.883C46.1595 26.0697 44.7546 26.8555 43.2122 27.0994C45.0565 23.3069 45.6961 19.0409 45.045 14.8744C44.8985 13.8035 44.6792 12.7439 44.3888 11.7028C44.9055 10.537 45.538 9.42614 46.2769 8.38688C47.6693 11.3516 48.5075 14.5461 48.75 17.8125ZM42.1875 3.75C43.2506 3.75 44.3494 4.89094 45.3356 6.5625C44.6576 7.39819 44.0564 8.29339 43.5394 9.23719C42.8483 7.4976 41.8777 5.88258 40.6659 4.45594C41.0703 4.0433 41.6113 3.7923 42.1875 3.75ZM35.625 20.625V17.8125C35.9508 13.599 37.2612 9.5208 39.451 5.90625C41.5151 8.58 42.8072 11.7682 43.1869 15.1247C43.8075 19.7072 42.9741 24.2109 41.0306 27.0778C39.5166 26.8054 38.1463 26.0102 37.1584 24.831C36.1706 23.6518 35.6279 22.1633 35.625 20.625ZM43.125 29.0072V33.6609C42.4894 33.9572 41.8659 34.2722 41.25 34.5984V29.0072C41.3269 29.0156 41.4056 29.0203 41.4834 29.0269C41.7159 29.0466 41.9522 29.0625 42.1875 29.0625C42.5008 29.0616 42.8138 29.0431 43.125 29.0072ZM45.1875 34.7812C43.4578 36.9901 41.6169 39.1097 39.6722 41.1319C39.6591 41.1441 39.6478 41.1572 39.6356 41.1703C35.3306 45.645 29.4028 50.7731 22.5 53.9784V53.7787C25.8656 49.2712 34.1438 39.4181 45.1875 34.7812ZM25.3125 20.625C26.4722 20.625 30 20.625 30 31.875C30 37.3556 25.1081 42.5428 21.2813 43.7812C20.7586 43.9183 20.2255 44.0124 19.6875 44.0625C19.5938 44.0625 19.5206 44.0494 19.4372 44.0419C19.175 44.0009 18.9175 43.934 18.6684 43.8422C18.4538 43.7371 18.2647 43.5864 18.1144 43.4006C16.4859 41.3709 17.685 34.8966 18.7275 30.2034C20.3194 23.0419 21.9806 20.625 25.3125 20.625ZM19.6875 19.6875C20.1858 19.733 20.6528 19.9504 21.0084 20.3025C19.8969 21.3692 19.0467 22.6782 18.5241 24.1275C18.1866 23.2313 17.7706 22.3667 17.2809 21.5437C18.1275 20.3438 18.9713 19.6875 19.6875 19.6875ZM15.6197 42.0778C12.1209 39.4631 8.43751 34.8413 8.43751 30.9375C8.43751 24.9619 10.4063 20.625 13.125 20.625C14.8125 20.625 16.1025 22.5 17.5613 27.0666C17.3231 27.9497 17.1047 28.8638 16.8975 29.7966C15.5841 35.7047 15.165 39.5691 15.6197 42.0778ZM16.875 53.6625V54.4538C13.4822 52.2337 7.94063 47.9062 4.83376 41.73C7.96876 43.83 13.3847 48 16.875 53.6625Z" fill="#166534"/>
</svg>

